<svg width="18" height="18" viewBox="0 0 18 18" fill="none" xmlns="http://www.w3.org/2000/svg">
<path d="M6.676 1.06426C6.25911 1.22435 5.93867 1.57123 5.79244 2.02484C5.74578 2.16493 5.73333 2.30168 5.73333 2.6052V2.99877H4.21822H2.7L2.54133 3.07882C2.19289 3.25226 2 3.58247 2 3.99939C2 4.41631 2.19289 4.74651 2.54133 4.91995L2.7 5H9H15.3L15.4587 4.91995C15.8071 4.74651 16 4.41631 16 3.99939C16 3.58247 15.8071 3.25226 15.4587 3.07882L15.3 2.99877H13.7849H12.2667V2.6052C12.2667 2.30168 12.2542 2.16493 12.2076 2.02484C12.0613 1.56456 11.7378 1.21768 11.3116 1.06092C11.1436 1.00088 11.0378 0.997549 8.98756 1.00088C6.97467 1.00088 6.82844 1.00755 6.676 1.06426ZM11.0782 2.08155C11.2524 2.19495 11.3084 2.3317 11.3271 2.68525L11.3427 2.99877H9H6.65733L6.67289 2.68525C6.69467 2.26166 6.788 2.09822 7.05556 2.02818C7.10844 2.01484 8.01067 2.00483 9.06222 2.00817C10.9164 2.01484 10.9787 2.01817 11.0782 2.08155Z" fill="#000000"/>
<path d="M3 6.05771C3 6.2126 3.80722 15.6978 3.83505 15.8557C3.91856 16.366 4.31134 16.8003 4.82165 16.9522C5.03505 17.0159 12.9649 17.0159 13.1784 16.9522C13.6887 16.8003 14.0814 16.366 14.1649 15.8557C14.1928 15.6978 15 6.2126 15 6.05771C15 6 14.8856 6 9 6C3.11443 6 3 6 3 6.05771ZM6.45464 7.00228C6.65876 7.12377 6.63711 6.93546 6.88454 10.8292C7.00825 12.7912 7.1134 14.4981 7.1134 14.6226C7.1134 14.8778 7.04845 15.0205 6.89691 15.0964C6.68969 15.2027 6.39278 15.1147 6.28763 14.9203C6.24742 14.8413 6.19794 14.1701 6.01237 11.2544C5.88866 9.29233 5.78351 7.58542 5.78351 7.46393C5.78351 7.32119 5.80206 7.20881 5.8299 7.1511C5.89794 7.02354 6.04948 6.94153 6.21649 6.94153C6.3 6.94153 6.39588 6.96583 6.45464 7.00228ZM9.22268 6.99317C9.27216 7.02354 9.3433 7.09643 9.38041 7.15414L9.44845 7.26044V11.0418C9.44845 14.7684 9.44845 14.8231 9.3866 14.9233C9.20722 15.2149 8.79278 15.2149 8.6134 14.9233C8.55155 14.8231 8.55155 14.7684 8.55155 11.0418V7.26044L8.61649 7.16021C8.75258 6.95065 9.01856 6.87775 9.22268 6.99317ZM12 6.98709C12.1515 7.06302 12.2165 7.20577 12.2165 7.4609C12.2165 7.58542 12.1113 9.29233 11.9876 11.2544C11.8021 14.1701 11.7526 14.8413 11.7124 14.9203C11.6072 15.1147 11.3103 15.2027 11.1031 15.0964C10.9515 15.0205 10.8866 14.8778 10.8866 14.6226C10.8866 14.4981 10.9918 12.7912 11.1155 10.8292C11.2979 7.92863 11.3505 7.24222 11.3907 7.16325C11.4959 6.96583 11.7897 6.88079 12 6.98709Z" fill="#000000"/>
</svg>
