<svg width="18" height="18" viewBox="0 0 18 18" fill="none" xmlns="http://www.w3.org/2000/svg">
<path d="M13.1763 2.03999C12.7919 2.1221 12.6845 2.20138 11.9807 2.8979L11.3335 3.54063L12.8993 5.10357L14.4622 6.6665L15.0727 6.05492C15.7284 5.39803 15.8443 5.24514 15.9489 4.90254C15.9998 4.74398 16.0054 4.65904 15.9969 4.39288C15.9743 3.80961 15.8782 3.64539 15.0869 2.85826C14.4622 2.23535 14.3464 2.15324 13.9507 2.05131C13.6991 1.98619 13.4391 1.98336 13.1763 2.03999Z" fill="#000000"/>
<path d="M6.56676 8.52808L2.83606 12.2588L2.41803 13.9256C2.17615 14.8984 2 15.6451 2 15.7187C2 15.9001 2.09991 16 2.28131 16C2.35493 16 3.1016 15.8238 4.07437 15.582L5.74122 15.1639L9.47192 11.4332C11.5226 9.38253 13.2 7.69465 13.2 7.67887C13.2 7.64469 10.3553 4.8 10.3211 4.8C10.3054 4.8 8.61747 6.47737 6.56676 8.52808Z" fill="#000000"/>
</svg>
